<svg width="812" height="620" viewBox="0 0 812 620" fill="none" xmlns="http://www.w3.org/2000/svg">
<style type="text/css">
#daun {
  animation: leaf 1s ease-in-out infinite alternate;
  transform-origin: bottom;
}
#hand {
  animation: hand 2s ease-in-out infinite alternate;
  transform-origin: top;
  transform-box: fill-box;
}

#task1 {
  animation: task 4s ease infinite;
  transform-origin: bottom;
}

#task2 {
  animation: task2 3s ease-in-out infinite alternate;
}
#task3 {
  animation: task3 6s ease infinite;
  transform-origin: bottom;
}

@keyframes leaf {
  from {
    transform: rotateX(0deg);
  }
  to {
    transform: rotateX(30deg);
  }
}

@keyframes hand {
  form {
    transform: rotateZ(-10deg);
  }
  to {
    transform: rotateZ(-50deg);
  }
}
@keyframes task {
  from {
    transform: translateY(0%);
    opacity: 1;
  }
  to {
    transform: translateY(-20%);
    opacity: 0;
  }
}
@keyframes task2 {
  from {
    opacity: 1;
  }
  to {
    opacity: 0;
  }
}
@keyframes task3 {
  from {
    transform: translateY(70%);
    opacity: 1;
  }
  to {
    transform: translateY(0%);
    opacity: 0;
  }
}
</style>
<g id="undraw_Done_checking_re_6vyx 1" clip-path="url(#clip0)">
<g id="daun">
<path id="Vector" d="M74.9128 619.032L74.8749 619.278C74.83 619.038 74.7867 618.793 74.7456 618.552C74.6705 618.162 74.6053 617.772 74.5439 617.379C72.1064 602.034 73.4477 586.325 78.4518 571.616C79.4137 568.744 80.5092 565.925 81.7384 563.159C86.4392 552.448 93.1031 542.711 101.386 534.451C104.076 531.698 107.144 529.344 110.499 527.458C110.991 527.197 111.487 526.95 111.993 526.722C115.096 525.217 118.589 524.711 121.991 525.273C123.227 525.506 124.425 525.908 125.55 526.468C125.945 526.66 126.325 526.871 126.698 527.096C128.972 528.587 130.914 530.532 132.402 532.808C133.89 535.085 134.891 537.644 135.345 540.325C135.991 544.325 135.843 548.414 134.91 552.357C134.829 552.733 134.743 553.108 134.651 553.482C133.989 556.11 133.158 558.692 132.162 561.213C122.193 586.862 100.77 609.619 74.9128 619.032Z" fill="#F2F2F2"/>
<path id="Vector_2" d="M125.484 526.551C117.706 537.728 110.358 549.19 103.44 560.934C96.5313 572.669 90.0742 584.655 84.0688 596.892C80.7094 603.738 77.4968 610.653 74.4311 617.638C74.0917 618.411 75.2367 619.084 75.5805 618.301C81.0555 605.832 86.997 593.582 93.405 581.552C99.8091 569.534 106.663 557.771 113.967 546.262C118.053 539.823 122.275 533.474 126.633 527.213C127.121 526.513 125.97 525.853 125.484 526.551Z" fill="white"/>
<path id="Vector_3" d="M133.807 552.424C127.962 560.02 119.358 565.007 109.861 566.302C107.211 566.664 104.529 566.717 101.867 566.461C101.015 566.38 101.009 567.707 101.854 567.787C111.76 568.62 121.594 565.513 129.222 559.139C131.362 557.35 133.286 555.319 134.957 553.086C135.468 552.406 134.315 551.748 133.807 552.424V552.424Z" fill="white"/>
<path id="Vector_4" d="M83.8834 593.632C82.5244 591.696 81.3953 589.608 80.5188 587.411C78.5164 582.403 77.8056 576.971 78.4518 571.616C79.4137 568.744 80.5092 565.925 81.7384 563.159C81.8128 563.268 81.8576 563.395 81.8684 563.526C81.8791 563.657 81.8554 563.789 81.7997 563.909C80.9341 565.984 80.3119 568.152 79.9454 570.37C78.6298 578.28 80.4562 586.391 85.0352 592.974C85.0931 593.046 85.1317 593.131 85.1471 593.222C85.1625 593.313 85.1543 593.407 85.1233 593.494C85.0721 593.609 84.9915 593.709 84.8897 593.783C84.7879 593.858 84.6684 593.904 84.543 593.918C84.4176 593.932 84.2907 593.913 84.175 593.863C84.0593 593.813 83.9588 593.733 83.8834 593.632V593.632Z" fill="white"/>
<path id="Vector_5" d="M110.697 526.618C109.097 532.993 109.574 539.712 112.057 545.798C112.145 545.95 112.289 546.061 112.459 546.107C112.628 546.153 112.809 546.131 112.962 546.045C113.112 545.955 113.221 545.81 113.267 545.642C113.313 545.473 113.292 545.294 113.209 545.14C110.884 539.366 110.452 533.003 111.977 526.967C112.016 526.8 111.989 526.624 111.902 526.476C111.814 526.328 111.672 526.22 111.506 526.174C111.34 526.129 111.163 526.15 111.012 526.233C110.861 526.316 110.748 526.454 110.697 526.618H110.697Z" fill="white"/>
<path id="Vector_6" d="M74.7497 586.997L74.8302 587.233C74.6794 587.042 74.5272 586.845 74.3788 586.65C74.1311 586.34 73.892 586.024 73.6552 585.705C64.3683 573.248 58.2594 558.714 55.8578 543.363C55.3758 540.374 55.0366 537.369 54.8402 534.348C54.0273 522.679 55.4055 510.96 58.9037 499.798C60.0068 496.111 61.6304 492.601 63.7255 489.373C64.0405 488.913 64.3641 488.464 64.7065 488.027C66.7548 485.253 69.613 483.182 72.8873 482.1C74.0897 481.731 75.3374 481.531 76.5947 481.504C77.0334 481.491 77.4679 481.501 77.9026 481.527C80.6092 481.791 83.2322 482.611 85.6071 483.936C87.9821 485.261 90.058 487.062 91.7048 489.226C94.1352 492.468 95.9034 496.157 96.9084 500.082C97.0124 500.453 97.1104 500.825 97.2024 501.199C97.8371 503.834 98.3004 506.507 98.5892 509.201C101.676 536.546 93.2756 566.65 74.7497 586.997Z" fill="#F2F2F2"/>
<path id="Vector_7" d="M76.5741 481.608C74.8781 495.12 73.695 508.683 73.025 522.297C72.3578 535.898 72.2072 549.512 72.5733 563.138C72.7785 570.761 73.146 578.377 73.6758 585.987C73.7343 586.829 75.0606 586.893 75.0014 586.04C74.0578 572.455 73.6292 558.847 73.7156 545.217C73.8043 531.599 74.4094 517.998 75.531 504.414C76.1589 496.814 76.9484 489.229 77.8997 481.661C78.0059 480.814 76.68 480.765 76.5741 481.608V481.608Z" fill="white"/>
<path id="Vector_8" d="M95.9634 500.654C94.3159 510.096 89.0129 518.509 81.2042 524.068C79.0257 525.618 76.6749 526.912 74.1988 527.921C73.4072 528.246 74.0185 529.424 74.8033 529.102C83.9625 525.239 91.228 517.918 95.0225 508.73C96.0867 506.153 96.8473 503.46 97.289 500.707C97.4258 499.866 96.0993 499.819 95.9634 500.654V500.654Z" fill="white"/>
<path id="Vector_9" d="M70.8948 560.337C68.7921 559.254 66.8225 557.93 65.0257 556.391C60.9258 552.886 57.7732 548.406 55.8577 543.363C55.3757 540.374 55.0365 537.369 54.8402 534.348C54.9566 534.41 55.055 534.501 55.1255 534.612C55.1961 534.724 55.2364 534.852 55.2424 534.983C55.4399 537.223 55.8961 539.432 56.602 541.567C59.1112 549.183 64.4964 555.517 71.6091 559.219C71.6938 559.256 71.7677 559.314 71.8236 559.387C71.8796 559.461 71.9157 559.547 71.9286 559.639C71.9368 559.765 71.9119 559.89 71.8563 560.004C71.8007 560.117 71.7165 560.214 71.6119 560.284C71.5074 560.355 71.3862 560.397 71.2604 560.406C71.1346 560.415 71.0085 560.391 70.8948 560.337V560.337Z" fill="white"/>
<path id="Vector_10" d="M63.5108 488.537C65.0553 494.925 68.5985 500.654 73.6245 504.89C73.773 504.983 73.9524 505.015 74.1239 504.977C74.2954 504.939 74.4451 504.835 74.5405 504.688C74.631 504.539 74.6606 504.36 74.6231 504.19C74.5855 504.019 74.4837 503.87 74.3388 503.772C69.5974 499.739 66.2594 494.304 64.8062 488.252C64.7635 488.085 64.6577 487.941 64.5112 487.851C64.3646 487.761 64.1887 487.731 64.0207 487.768C63.8526 487.805 63.7055 487.906 63.6103 488.049C63.5152 488.193 63.4795 488.368 63.5107 488.537L63.5108 488.537Z" fill="white"/>
<path id="Vector_11" d="M75.3238 619.195L75.5183 619.35C75.2884 619.27 75.0542 619.186 74.8242 619.102C74.4484 618.974 74.077 618.837 73.7055 618.696C59.1717 613.201 46.1971 604.245 35.906 592.604C33.8898 590.345 31.9856 587.996 30.1935 585.556C23.2238 576.162 18.0739 565.546 15.0098 554.256C13.9537 550.556 13.4312 546.724 13.458 542.875C13.4757 542.318 13.5066 541.766 13.5597 541.213C13.7914 537.772 15.0844 534.488 17.2605 531.813C18.0753 530.855 19.0186 530.014 20.0637 529.315C20.4262 529.067 20.7977 528.842 21.1779 528.629C23.6008 527.394 26.2526 526.673 28.9672 526.51C31.6818 526.347 34.4008 526.746 36.9539 527.683C40.7478 529.106 44.2244 531.262 47.1852 534.028C47.4726 534.284 47.7556 534.545 48.0343 534.811C49.988 536.689 51.8179 538.691 53.5124 540.806C70.8403 562.184 79.9752 592.074 75.3238 619.195Z" fill="#F2F2F2"/>
<path id="Vector_12" d="M20.1021 529.413C25.9501 541.712 32.2578 553.777 39.0252 565.608C45.7883 577.428 52.9932 588.98 60.64 600.264C64.9185 606.576 69.3301 612.796 73.8748 618.922C74.3777 619.6 75.5295 618.94 75.0202 618.253C66.9086 607.314 59.2189 596.079 51.951 584.548C44.6918 573.027 37.8767 561.241 31.5056 549.191C27.9415 542.449 24.5222 535.633 21.2475 528.744C20.8811 527.973 19.7371 528.645 20.1021 529.413Z" fill="white"/>
<path id="Vector_13" d="M46.6967 535.019C50.3939 543.862 50.4564 553.806 46.8707 562.695C45.8703 565.175 44.586 567.531 43.0434 569.715C42.5511 570.415 43.7007 571.078 44.1888 570.385C49.8254 562.197 52.0047 552.115 50.2535 542.33C49.762 539.585 48.9527 536.907 47.8421 534.349C47.5048 533.567 46.3618 534.242 46.6967 535.019Z" fill="white"/>
<path id="Vector_14" d="M57.7174 598.808C55.3623 599.027 52.9897 598.973 50.6473 598.644C45.3049 597.898 40.2357 595.822 35.906 592.604C33.8898 590.345 31.9856 587.996 30.1935 585.556C30.3249 585.546 30.4568 585.569 30.5762 585.625C30.6956 585.681 30.7984 585.767 30.8744 585.875C32.247 587.655 33.8212 589.271 35.5656 590.69C41.7815 595.755 49.7304 598.192 57.7174 597.481C57.8085 597.466 57.9019 597.475 57.9886 597.507C58.0752 597.539 58.1523 597.592 58.2124 597.662C58.2871 597.764 58.3339 597.884 58.3481 598.009C58.3623 598.134 58.3434 598.261 58.2934 598.377C58.2433 598.493 58.1638 598.593 58.0627 598.669C57.9617 598.745 57.8427 598.792 57.7174 598.808V598.808Z" fill="white"/>
<path id="Vector_15" d="M12.8268 542.287C17.5689 546.838 23.6396 549.757 30.1555 550.618C30.5136 550.666 30.8154 550.279 30.8188 549.955C30.8146 549.781 30.7434 549.614 30.6199 549.491C30.4964 549.367 30.3301 549.296 30.1555 549.292C23.9884 548.447 18.2489 545.666 13.7647 541.349C13.1499 540.756 12.2107 541.693 12.8267 542.287H12.8268Z" fill="white"/>
</g>
<g id="body">
<path id="Vector_16" d="M165.861 444.249C167.157 443.361 168.242 442.2 169.04 440.847C169.838 439.494 170.329 437.983 170.48 436.42C170.631 434.857 170.437 433.279 169.913 431.799C169.388 430.319 168.545 428.972 167.443 427.852L171.61 334.834L150.395 337.216L151.627 428.2C149.87 430.176 148.898 432.727 148.896 435.372C148.894 438.016 149.862 440.569 151.616 442.547C153.371 444.525 155.79 445.791 158.415 446.105C161.041 446.418 163.69 445.758 165.861 444.249V444.249Z" fill="#FFB8B8"/>
<path id="Vector_17" d="M204.564 601.708L216.639 603.83L228.573 558.267L212.752 555.134L204.564 601.708Z" fill="#FFB8B8"/>
<path id="Vector_18" d="M237.954 619.136L200.005 612.465L202.583 597.803L225.87 601.897C227.795 602.235 229.635 602.95 231.284 603.999C232.934 605.049 234.36 606.413 235.482 608.014C236.605 609.615 237.4 611.421 237.824 613.329C238.249 615.238 238.293 617.211 237.954 619.136V619.136V619.136Z" fill="#2F2E41"/>
<path id="Vector_19" d="M171.422 607.752L183.682 607.751L189.514 560.463L171.42 560.464L171.422 607.752Z" fill="#FFB8B8"/>
<path id="Vector_20" d="M207.326 619.134L168.795 619.136L168.794 604.249L192.438 604.248C196.387 604.248 200.173 605.816 202.965 608.608C205.757 611.4 207.326 615.186 207.326 619.134V619.134L207.326 619.134Z" fill="#2F2E41"/>
<path id="Vector_21" d="M223.574 594.802C223.383 594.803 223.192 594.791 223.002 594.769L208.572 593.581C207.915 593.504 207.28 593.294 206.707 592.964C206.134 592.634 205.634 592.191 205.237 591.661C204.84 591.132 204.555 590.528 204.399 589.885C204.243 589.242 204.219 588.574 204.329 587.922L217.654 513.241L208.651 465.767C208.577 465.381 208.367 465.035 208.058 464.792C207.75 464.549 207.364 464.426 206.971 464.446C206.579 464.465 206.207 464.626 205.924 464.898C205.641 465.17 205.466 465.536 205.432 465.927L194.176 592.554C194.052 593.825 193.44 594.998 192.468 595.826C191.496 596.654 190.24 597.072 188.966 596.992L175.371 596.485C174.18 596.401 173.061 595.883 172.225 595.03C171.389 594.177 170.895 593.047 170.835 591.854L169.921 440.087L240.402 431.277L245.326 507.317L245.306 507.398L228.316 591.073C228.057 592.136 227.449 593.081 226.589 593.757C225.73 594.433 224.668 594.801 223.574 594.802V594.802Z" fill="#2F2E41"/>
<path id="Vector_22" d="M216.301 451.179C212.46 451.202 208.692 450.124 205.444 448.073C193.547 440.637 180.034 443.593 173.037 446.016C172.343 446.259 171.603 446.342 170.872 446.259C170.141 446.176 169.439 445.928 168.817 445.535C168.202 445.149 167.683 444.63 167.298 444.014C166.912 443.399 166.671 442.705 166.592 441.984L153.87 328.358C151.738 309.32 163.206 291.421 181.138 285.799C181.811 285.587 182.496 285.387 183.193 285.197C188.773 283.684 194.617 283.413 200.314 284.401C206.01 285.39 211.421 287.615 216.165 290.92C220.997 294.261 225.038 298.621 228.004 303.692C230.97 308.763 232.789 314.423 233.332 320.273L244.042 434.66C244.115 435.401 244.015 436.148 243.75 436.843C243.485 437.539 243.062 438.163 242.515 438.667C238.76 442.14 227.863 451.178 216.301 451.179Z" fill="#F9A826"/>
<path id="Vector_23" d="M177.56 352.724L148.857 349.568C148.04 349.479 147.252 349.214 146.547 348.792C145.842 348.37 145.236 347.802 144.77 347.125C144.305 346.448 143.991 345.678 143.849 344.869C143.708 344.06 143.743 343.229 143.951 342.435L151.257 314.588C151.74 310.412 153.86 306.599 157.151 303.983C160.441 301.367 164.635 300.163 168.812 300.635C172.989 301.107 176.809 303.216 179.434 306.499C182.058 309.783 183.274 313.973 182.814 318.151L183.898 346.827C183.929 347.648 183.783 348.466 183.469 349.225C183.155 349.984 182.681 350.667 182.08 351.227C181.478 351.787 180.763 352.21 179.983 352.468C179.203 352.727 178.377 352.814 177.56 352.724V352.724Z" fill="#F9A826"/>
<path id="Vector_24" d="M382 620H1C0.734784 620 0.480429 619.895 0.292892 619.707C0.105356 619.52 0 619.265 0 619C0 618.735 0.105356 618.48 0.292892 618.293C0.480429 618.105 0.734784 618 1 618H382C382.265 618 382.52 618.105 382.707 618.293C382.895 618.48 383 618.735 383 619C383 619.265 382.895 619.52 382.707 619.707C382.52 619.895 382.265 620 382 620Z" fill="#3F3D56"/>
</g>
<g id="hand">
<path id="Vector_25" d="M243.927 440.266C245.106 439.228 246.043 437.945 246.672 436.506C247.302 435.067 247.608 433.507 247.569 431.937C247.53 430.367 247.148 428.825 246.449 427.419C245.749 426.012 244.75 424.777 243.522 423.798L236.449 330.956L215.66 335.636L227.863 426.05C226.356 428.223 225.699 430.873 226.016 433.498C226.332 436.123 227.601 438.541 229.581 440.293C231.561 442.045 234.115 443.01 236.759 443.005C239.403 443 241.954 442.026 243.927 440.266V440.266Z" fill="#FFB8B8"/>
<path id="Vector_26" d="M207.69 346.888C207.088 346.329 206.614 345.646 206.301 344.887C205.987 344.127 205.84 343.309 205.872 342.488L206.956 313.813C206.496 309.634 207.712 305.444 210.336 302.161C212.961 298.877 216.781 296.768 220.958 296.296C225.135 295.825 229.329 297.029 232.619 299.644C235.91 302.26 238.029 306.074 238.513 310.25L245.819 338.096C246.027 338.891 246.062 339.721 245.92 340.53C245.779 341.34 245.465 342.109 244.999 342.786C244.534 343.463 243.928 344.032 243.223 344.454C242.518 344.875 241.73 345.14 240.913 345.23L212.21 348.386C211.393 348.476 210.566 348.389 209.786 348.13C209.006 347.872 208.291 347.448 207.69 346.888V346.888Z" fill="#F9A826"/>
</g>
<g id="head">
<path id="Vector_27" d="M193.159 274.558C206.723 274.558 217.72 263.561 217.72 249.997C217.72 236.432 206.723 225.436 193.159 225.436C179.594 225.436 168.598 236.432 168.598 249.997C168.598 263.561 179.594 274.558 193.159 274.558Z" fill="#FFB8B8"/>
<path id="Vector_28" d="M191.698 275.483C191.261 275.483 190.826 275.432 190.401 275.332L190.276 275.301C168.682 271.998 163.91 259.49 162.862 254.266C161.778 248.858 163.013 243.638 165.802 241.611C164.281 236.808 164.525 232.55 166.53 228.948C170.025 222.668 177.611 220.545 178.628 220.285C184.686 215.816 191.934 218.799 193.253 219.404C204.972 215.069 209.451 218.677 210.261 219.483C215.499 220.424 218.692 222.447 219.752 225.499C221.743 231.23 215.447 238.359 215.178 238.659L215.038 238.815L205.658 239.262C204.768 239.304 203.897 239.533 203.101 239.934C202.305 240.335 201.602 240.899 201.038 241.589C200.474 242.279 200.062 243.079 199.827 243.939C199.592 244.799 199.541 245.698 199.677 246.579V246.579C199.93 247.715 200.251 248.836 200.637 249.934C202.239 254.941 203.439 259.217 201.891 260.843C201.54 261.158 201.108 261.368 200.644 261.448C200.18 261.529 199.702 261.477 199.266 261.299C197.799 260.907 196.804 260.989 196.307 261.543C195.537 262.403 195.772 264.578 196.97 267.669C197.345 268.646 197.446 269.707 197.262 270.738C197.078 271.769 196.615 272.729 195.924 273.516C195.403 274.13 194.756 274.623 194.027 274.963C193.297 275.303 192.503 275.48 191.698 275.483Z" fill="#2F2E41"/>
</g>
<g id="task1">
<path id="Vector_29" d="M481.76 354H360.76C356.253 353.995 351.932 352.202 348.745 349.015C345.558 345.828 343.765 341.507 343.76 337V155.168C343.765 150.661 345.558 146.34 348.745 143.153C351.932 139.966 356.253 138.174 360.76 138.168H481.76C486.267 138.174 490.588 139.966 493.775 143.153C496.962 146.34 498.755 150.661 498.76 155.168V337C498.755 341.507 496.962 345.828 493.775 349.015C490.588 352.202 486.267 353.995 481.76 354V354ZM360.76 140.168C356.783 140.173 352.97 141.755 350.158 144.567C347.346 147.379 345.764 151.192 345.76 155.168V337C345.764 340.977 347.346 344.79 350.158 347.602C352.97 350.414 356.783 351.996 360.76 352H481.76C485.737 351.996 489.549 350.414 492.361 347.602C495.174 344.79 496.755 340.977 496.76 337V155.168C496.755 151.192 495.174 147.379 492.361 144.567C489.549 141.755 485.737 140.173 481.76 140.168H360.76Z" fill="#3F3D56"/>
<path id="Vector_30" d="M463.26 225.584H379.26C377.006 225.582 374.846 224.686 373.252 223.092C371.659 221.499 370.762 219.338 370.76 217.084V177.084C370.762 174.831 371.659 172.67 373.252 171.077C374.846 169.483 377.006 168.587 379.26 168.584H463.26C465.513 168.587 467.674 169.483 469.267 171.077C470.861 172.67 471.757 174.831 471.76 177.084V217.084C471.757 219.338 470.861 221.499 469.267 223.092C467.674 224.686 465.513 225.582 463.26 225.584Z" fill="#F9A826"/>
<path id="Vector_31" d="M457.26 263.084H385.26C383.138 263.084 381.103 262.241 379.603 260.741C378.103 259.241 377.26 257.206 377.26 255.084C377.26 252.963 378.103 250.928 379.603 249.427C381.103 247.927 383.138 247.084 385.26 247.084H457.26C459.382 247.084 461.416 247.927 462.917 249.427C464.417 250.928 465.26 252.963 465.26 255.084C465.26 257.206 464.417 259.241 462.917 260.741C461.416 262.241 459.382 263.084 457.26 263.084Z" fill="#CCCCCC"/>
<path id="Vector_32" d="M457.26 293.084H385.26C383.138 293.084 381.103 292.241 379.603 290.741C378.103 289.241 377.26 287.206 377.26 285.084C377.26 282.963 378.103 280.928 379.603 279.427C381.103 277.927 383.138 277.084 385.26 277.084H457.26C459.382 277.084 461.416 277.927 462.917 279.427C464.417 280.928 465.26 282.963 465.26 285.084C465.26 287.206 464.417 289.241 462.917 290.741C461.416 292.241 459.382 293.084 457.26 293.084Z" fill="#CCCCCC"/>
<path id="Vector_33" d="M457.26 323.084H385.26C383.138 323.084 381.103 322.241 379.603 320.741C378.103 319.241 377.26 317.206 377.26 315.084C377.26 312.963 378.103 310.928 379.603 309.427C381.103 307.927 383.138 307.084 385.26 307.084H457.26C459.382 307.084 461.416 307.927 462.917 309.427C464.417 310.928 465.26 312.963 465.26 315.084C465.26 317.206 464.417 319.241 462.917 320.741C461.416 322.241 459.382 323.084 457.26 323.084Z" fill="#CCCCCC"/>
<path id="Vector_34" d="M488.76 166C501.462 166 511.76 155.703 511.76 143C511.76 130.297 501.462 120 488.76 120C476.057 120 465.76 130.297 465.76 143C465.76 155.703 476.057 166 488.76 166Z" fill="#F9A826"/>
<path id="Vector_35" d="M486.48 151.774C485.963 151.775 485.459 151.608 485.045 151.297L485.019 151.278L479.614 147.14C479.362 146.948 479.151 146.709 478.992 146.436C478.833 146.163 478.73 145.861 478.688 145.548C478.646 145.234 478.666 144.916 478.747 144.61C478.828 144.305 478.969 144.019 479.161 143.768C479.354 143.517 479.594 143.306 479.867 143.148C480.141 142.99 480.443 142.888 480.757 142.847C481.07 142.806 481.389 142.827 481.694 142.91C481.999 142.992 482.285 143.134 482.535 143.327L486.036 146.012L494.31 135.222C494.501 134.972 494.741 134.762 495.014 134.604C495.287 134.446 495.588 134.344 495.901 134.302C496.214 134.261 496.531 134.282 496.836 134.363C497.141 134.445 497.426 134.586 497.676 134.777L497.625 134.847L497.678 134.778C498.183 135.166 498.513 135.739 498.596 136.37C498.679 137.001 498.509 137.64 498.122 138.145L488.391 150.837C488.165 151.129 487.876 151.366 487.545 151.528C487.213 151.691 486.849 151.775 486.48 151.774V151.774Z" fill="white"/>
</g>
<g id="task3">
<path id="Vector_36" d="M776.76 456H655.76C651.253 455.995 646.932 454.202 643.745 451.015C640.558 447.828 638.765 443.507 638.76 439V257.168C638.765 252.661 640.558 248.34 643.745 245.153C646.932 241.966 651.253 240.174 655.76 240.168H776.76C781.267 240.174 785.588 241.966 788.775 245.153C791.962 248.34 793.755 252.661 793.76 257.168V439C793.755 443.507 791.962 447.828 788.775 451.015C785.588 454.202 781.267 455.995 776.76 456ZM655.76 242.168C651.783 242.173 647.97 243.755 645.158 246.567C642.346 249.379 640.764 253.192 640.76 257.168V439C640.764 442.977 642.346 446.79 645.158 449.602C647.97 452.414 651.783 453.996 655.76 454H776.76C780.737 453.996 784.549 452.414 787.362 449.602C790.174 446.79 791.755 442.977 791.76 439V257.168C791.755 253.192 790.174 249.379 787.362 246.567C784.549 243.755 780.737 242.173 776.76 242.168H655.76Z" fill="#3F3D56"/>
<path id="Vector_37" d="M752.26 285.084H680.26C678.138 285.084 676.103 284.241 674.603 282.741C673.103 281.241 672.26 279.206 672.26 277.084C672.26 274.963 673.103 272.928 674.603 271.427C676.103 269.927 678.138 269.084 680.26 269.084H752.26C754.382 269.084 756.417 269.927 757.917 271.427C759.417 272.928 760.26 274.963 760.26 277.084C760.26 279.206 759.417 281.241 757.917 282.741C756.417 284.241 754.382 285.084 752.26 285.084Z" fill="#CCCCCC"/>
<path id="Vector_38" d="M752.26 315.084H680.26C678.138 315.084 676.103 314.241 674.603 312.741C673.103 311.241 672.26 309.206 672.26 307.084C672.26 304.963 673.103 302.928 674.603 301.427C676.103 299.927 678.138 299.084 680.26 299.084H752.26C754.382 299.084 756.417 299.927 757.917 301.427C759.417 302.928 760.26 304.963 760.26 307.084C760.26 309.206 759.417 311.241 757.917 312.741C756.417 314.241 754.382 315.084 752.26 315.084Z" fill="#CCCCCC"/>
<path id="Vector_39" d="M758.26 391.584H674.26C672.006 391.581 669.846 390.685 668.252 389.091C666.659 387.498 665.763 385.338 665.76 383.084V343.084C665.763 340.83 666.659 338.67 668.252 337.077C669.846 335.483 672.006 334.587 674.26 334.584H758.26C760.513 334.587 762.674 335.483 764.267 337.077C765.861 338.67 766.757 340.83 766.76 343.084V383.084C766.757 385.338 765.861 387.498 764.267 389.091C762.674 390.685 760.513 391.581 758.26 391.584V391.584Z" fill="#E6E6E6"/>
<path id="Vector_40" d="M752.26 427.084H680.26C678.138 427.084 676.103 426.242 674.603 424.741C673.103 423.241 672.26 421.206 672.26 419.084C672.26 416.963 673.103 414.928 674.603 413.427C676.103 411.927 678.138 411.084 680.26 411.084H752.26C754.382 411.084 756.417 411.927 757.917 413.427C759.417 414.928 760.26 416.963 760.26 419.084C760.26 421.206 759.417 423.241 757.917 424.741C756.417 426.242 754.382 427.084 752.26 427.084Z" fill="#CCCCCC"/>
<path id="Vector_41" d="M788.76 269C801.462 269 811.76 258.703 811.76 246C811.76 233.297 801.462 223 788.76 223C776.057 223 765.76 233.297 765.76 246C765.76 258.703 776.057 269 788.76 269Z" fill="#3F3D56"/>
<path id="Vector_42" d="M786.48 254.774C785.963 254.775 785.459 254.608 785.045 254.297L785.019 254.278L779.614 250.14C779.362 249.948 779.151 249.709 778.992 249.436C778.833 249.163 778.73 248.861 778.688 248.548C778.646 248.234 778.666 247.916 778.747 247.61C778.828 247.305 778.969 247.019 779.162 246.768C779.354 246.517 779.594 246.306 779.867 246.148C780.141 245.99 780.443 245.888 780.757 245.847C781.07 245.806 781.389 245.827 781.694 245.91C781.999 245.992 782.285 246.134 782.535 246.327L786.036 249.012L794.31 238.222C794.501 237.972 794.741 237.762 795.014 237.604C795.287 237.446 795.588 237.344 795.901 237.302C796.214 237.261 796.531 237.282 796.836 237.363C797.141 237.445 797.426 237.586 797.676 237.777L797.625 237.847L797.678 237.778C798.183 238.166 798.513 238.739 798.596 239.37C798.679 240.001 798.509 240.64 798.122 241.145L788.391 253.837C788.166 254.129 787.876 254.366 787.545 254.528C787.213 254.691 786.849 254.775 786.48 254.774Z" fill="white"/>
</g>
<g id="task2">
<path id="Vector_43" d="M702.76 167H581.76C577.253 166.995 572.932 165.202 569.745 162.015C566.558 158.828 564.765 154.507 564.76 150V37.1685C564.765 32.6613 566.558 28.3403 569.745 25.1532C572.932 21.9662 577.253 20.1735 581.76 20.1685H702.76C707.267 20.1735 711.588 21.9662 714.775 25.1532C717.962 28.3403 719.755 32.6613 719.76 37.1685V150C719.755 154.507 717.962 158.828 714.775 162.015C711.588 165.202 707.267 166.995 702.76 167V167ZM581.76 22.1685C577.783 22.173 573.97 23.7548 571.158 26.5668C568.346 29.3789 566.764 33.1916 566.76 37.1685V150C566.764 153.977 568.346 157.79 571.158 160.602C573.97 163.414 577.783 164.996 581.76 165H702.76C706.737 164.996 710.549 163.414 713.362 160.602C716.174 157.79 717.755 153.977 717.76 150V37.1685C717.755 33.1916 716.174 29.3789 713.362 26.5668C710.549 23.7548 706.737 22.173 702.76 22.1685H581.76Z" fill="#3F3D56"/>
<path id="Vector_44" d="M678.26 131.584H606.26C604.138 131.584 602.103 130.741 600.603 129.241C599.103 127.741 598.26 125.706 598.26 123.584C598.26 121.463 599.103 119.428 600.603 117.927C602.103 116.427 604.138 115.584 606.26 115.584H678.26C680.382 115.584 682.417 116.427 683.917 117.927C685.417 119.428 686.26 121.463 686.26 123.584C686.26 125.706 685.417 127.741 683.917 129.241C682.417 130.741 680.382 131.584 678.26 131.584Z" fill="#CCCCCC"/>
<path id="Vector_45" d="M678.26 101.584H606.26C604.138 101.584 602.103 100.741 600.603 99.2412C599.103 97.7409 598.26 95.7061 598.26 93.5843C598.26 91.4626 599.103 89.4278 600.603 87.9275C602.103 86.4272 604.138 85.5843 606.26 85.5843H678.26C680.382 85.5843 682.417 86.4272 683.917 87.9275C685.417 89.4278 686.26 91.4626 686.26 93.5843C686.26 95.7061 685.417 97.7409 683.917 99.2412C682.417 100.741 680.382 101.584 678.26 101.584Z" fill="#CCCCCC"/>
<path id="Vector_46" d="M678.26 71.5844H606.26C604.138 71.5844 602.103 70.7415 600.603 69.2412C599.103 67.7409 598.26 65.7061 598.26 63.5844C598.26 61.4626 599.103 59.4278 600.603 57.9275C602.103 56.4272 604.138 55.5844 606.26 55.5844H678.26C680.382 55.5844 682.417 56.4272 683.917 57.9275C685.417 59.4278 686.26 61.4626 686.26 63.5844C686.26 65.7061 685.417 67.7409 683.917 69.2412C682.417 70.7415 680.382 71.5844 678.26 71.5844Z" fill="#CCCCCC"/>
<path id="Vector_47" d="M715.76 46C728.462 46 738.76 35.7025 738.76 23C738.76 10.2975 728.462 0 715.76 0C703.057 0 692.76 10.2975 692.76 23C692.76 35.7025 703.057 46 715.76 46Z" fill="#3F3D56"/>
<path id="Vector_48" d="M713.48 31.774C712.963 31.775 712.459 31.6076 712.045 31.2973L712.019 31.278L706.614 27.1396C706.362 26.9483 706.151 26.7091 705.992 26.4359C705.833 26.1627 705.73 25.8609 705.688 25.5476C705.646 25.2343 705.666 24.9159 705.747 24.6104C705.828 24.305 705.969 24.0186 706.162 23.7677C706.354 23.5168 706.594 23.3064 706.867 23.1484C707.141 22.9904 707.443 22.888 707.757 22.8471C708.07 22.8061 708.389 22.8275 708.694 22.9099C708.999 22.9923 709.285 23.1341 709.535 23.3272L713.036 26.0118L721.31 15.2219C721.501 14.9716 721.741 14.7616 722.014 14.6038C722.287 14.4461 722.588 14.3436 722.901 14.3023C723.214 14.2611 723.531 14.2818 723.836 14.3633C724.141 14.4448 724.426 14.5855 724.676 14.7774L724.625 14.8473L724.678 14.7785C725.183 15.1664 725.513 15.7388 725.596 16.37C725.679 17.0012 725.509 17.6396 725.122 18.1453L715.391 30.8368C715.166 31.1293 714.876 31.3659 714.545 31.5285C714.213 31.691 713.849 31.775 713.48 31.774Z" fill="white"/>
</g>
</g>
<defs>
<clipPath id="clip0">
<rect width="811.76" height="620" fill="white"/>
</clipPath>
</defs>
</svg>
