<svg id="Layer_2" data-name="Layer 2" xmlns="http://www.w3.org/2000/svg" viewBox="0 0 475.75 57.66"><defs><style>.cls-1{fill:#e55c3e;}.cls-2{fill:#e5c58f;}</style></defs><path class="cls-1" d="M29.85,277.51a3.39,3.39,0,0,1-5.49,1.17,3.39,3.39,0,0,1-1-2.81l3.8-41.66a2,2,0,0,1,2-1.84H39v-5.2h-9.8A7.24,7.24,0,0,0,22,233.72l-3.8,41.65a8.59,8.59,0,0,0,8.53,9.46,8.31,8.31,0,0,0,1.79-.19,8.56,8.56,0,0,0,6.18-5.18l2.73-6.81-4.83-1.94Z" transform="translate(-18.12 -227.17)"/><rect class="cls-1" x="15.28" y="10" width="5.58" height="5.56"/><path class="cls-1" d="M96.59,275.37l-3.8-41.65a7.24,7.24,0,0,0-7.22-6.55H75.78v5.2h9.79a2,2,0,0,1,2,1.84l3.8,41.66a3.39,3.39,0,0,1-1,2.81,3.39,3.39,0,0,1-5.49-1.17l-2.73-6.8-4.82,1.94,2.73,6.81a8.56,8.56,0,0,0,6.18,5.18,8.29,8.29,0,0,0,1.78.19,8.59,8.59,0,0,0,8.54-9.46Z" transform="translate(-18.12 -227.17)"/><path class="cls-1" d="M70.53,236.93v-9.76H44.23v9.76a5.8,5.8,0,0,0,5.79,5.8H64.74A5.8,5.8,0,0,0,70.53,236.93Zm-20.51.6a.6.6,0,0,1-.59-.6v-4.56h15.9v4.56a.6.6,0,0,1-.59.6H50Z" transform="translate(-18.12 -227.17)"/><rect class="cls-1" x="57.66" y="10" width="5.58" height="5.56"/><path class="cls-1" d="M70.64,247.81a10.58,10.58,0,0,0-10.57,10.56H54.69a10.58,10.58,0,1,0-1.32,5.11h8a10.56,10.56,0,1,0,9.25-15.67ZM44.12,263.87a5.5,5.5,0,1,1,5.5-5.5A5.5,5.5,0,0,1,44.12,263.87Zm26.52,0a5.5,5.5,0,1,1,5.5-5.5A5.5,5.5,0,0,1,70.64,263.87Z" transform="translate(-18.12 -227.17)"/><path class="cls-2" d="M157.64,236.69h-18v15.86h15.14v9H139.6v23.3h-13V227.17h31Z" transform="translate(-18.12 -227.17)"/><path class="cls-2" d="M187.74,227.17h13v47.6q0,10.05-11.51,10.06H177q-11.43,0-11.42-10.06v-47.6h13V273c0,1.51.78,2.27,2.36,2.27h4.35c1.63,0,2.45-.76,2.45-2.27Z" transform="translate(-18.12 -227.17)"/><path class="cls-2" d="M235.78,227.17h11.88v57.66H236.05l-12.6-34.54v34.54H211.67V227.17h11.69l12.42,34.45Z" transform="translate(-18.12 -227.17)"/><path class="cls-2" d="M269.78,227.17h12.15q11.42,0,11.42,10v37.63q0,10.05-11.42,10.06H269.78q-11.52,0-11.51-10.06V237.14Q258.27,227.18,269.78,227.17ZM280.38,273V239a2,2,0,0,0-2.35-2.27h-4.35c-1.64,0-2.45.76-2.45,2.27V273c0,1.51.81,2.27,2.45,2.27H278A2,2,0,0,0,280.38,273Z" transform="translate(-18.12 -227.17)"/><path class="cls-2" d="M316.92,263.25v21.58H304.05V227.17H327.8q11.42,0,11.42,10v16.14q0,8-7.25,9.61l10.15,21.94H328.25l-9.07-21.58Zm0-26.56V254.1h7a2.66,2.66,0,0,0,1.81-.5,2.16,2.16,0,0,0,.55-1.68V239c0-1.51-.79-2.27-2.36-2.27Z" transform="translate(-18.12 -227.17)"/><path class="cls-2" d="M375.75,284.83l-2-10.43H360.61l-2,10.43H345.84l13.05-57.66h16.5l13.42,57.66ZM362.43,265h9.42l-4.71-24.39Z" transform="translate(-18.12 -227.17)"/><path class="cls-2" d="M407.57,284.83H396.15V227.17h14.14l9.52,32.64,9.52-32.64h14.14v57.66H432.05V246.12l-7.43,26.2H415l-7.44-26.11Z" transform="translate(-18.12 -227.17)"/><path class="cls-2" d="M480.82,284.83l-2-10.43H465.68l-2,10.43H450.91l13-57.66h16.5l13.42,57.66ZM467.5,265h9.42l-4.71-24.39Z" transform="translate(-18.12 -227.17)"/></svg>